<?xml version="1.0" encoding="UTF-8"?>
<svg xmlns="http://www.w3.org/2000/svg" xmlns:xlink="http://www.w3.org/1999/xlink" viewBox="0 0 32 32" width="32px" height="32px">
<g id="surface688323">
<path style=" stroke:none;fill-rule:nonzero;fill:rgb(100%,100%,100%);fill-opacity:1;" d="M 23.066406 5.003906 C 22.890625 5.003906 21.625 5.253906 11.257812 7.195312 C 11.175781 7.195312 10.789062 7.296875 10.578125 7.476562 C 10.367188 7.644531 10.253906 7.867188 10.214844 8.132812 C 10.042969 8.824219 10.59375 21.28125 10.082031 21.863281 C 9.855469 22.113281 9.460938 22.1875 9.15625 22.242188 C 7.332031 22.5625 6.117188 22.730469 5.253906 23.550781 C 3.765625 25.003906 4.535156 27.542969 6.730469 27.953125 C 7.554688 28.105469 9.101562 27.898438 9.953125 27.425781 C 10.707031 27.039062 11.277344 26.34375 11.488281 25.417969 C 11.671875 24.625 11.617188 25.171875 11.617188 13.242188 C 11.617188 12.660156 11.78125 12.507812 12.296875 12.394531 C 12.296875 12.394531 21.320312 10.707031 21.734375 10.636719 C 22.320312 10.535156 22.597656 10.691406 22.597656 11.261719 C 22.597656 19.347656 22.703125 19.191406 22.375 19.558594 C 22.152344 19.804688 21.886719 19.875 21.582031 19.933594 C 19.757812 20.25 18.65625 20.308594 17.789062 21.132812 C 16.699219 22.199219 16.710938 23.890625 17.925781 24.914062 C 18.832031 25.601562 19.847656 25.773438 21.09375 25.542969 C 22.511719 25.277344 23.570312 24.496094 23.894531 23.101562 C 24.042969 22.464844 23.996094 23.40625 23.988281 5.902344 C 23.988281 5.308594 23.652344 4.964844 23.066406 5.007812 Z M 23.066406 5.003906 "/>
</g>
</svg>
